<mxfile host="app.diagrams.net" modified="2024-03-03T18:36:23.267Z" agent="Mozilla/5.0 (Windows NT 10.0; Win64; x64) AppleWebKit/537.36 (KHTML, like Gecko) Chrome/122.0.0.0 Safari/537.36" version="24.0.1" etag="Oaw0Ng2xTtYXl18RNXqS" type="github">
  <diagram name="PÃ¡gina-1" id="MpDm93EgxfYB1I2wccgd">
    <mxGraphModel>
      <root>
        <mxCell id="0" />
        <mxCell id="1" parent="0" />
      </root>
    </mxGraphModel>
  </diagram>
</mxfile>
